<?xml version="1.0" standalone="no"?>
<!DOCTYPE svg PUBLIC "-//W3C//DTD SVG 20010904//EN"
 "http://www.w3.org/TR/2001/REC-SVG-20010904/DTD/svg10.dtd">
<svg version="1.0" xmlns="http://www.w3.org/2000/svg"
 width="373.000000pt" height="113.000000pt" viewBox="0 0 373.000000 113.000000"
 preserveAspectRatio="xMidYMid meet">

<g transform="translate(0.000000,113.000000) scale(0.100000,-0.100000)"
fill="#000000" stroke="none">
<path d="M1027 793 c-4 -3 -7 -33 -7 -66 0 -57 -1 -59 -22 -52 -13 5 -52 10
-88 12 -52 3 -71 0 -98 -17 -49 -30 -72 -75 -72 -140 0 -96 57 -154 150 -152
90 1 165 8 178 15 9 6 12 59 12 208 l0 199 -23 0 c-13 0 -27 -3 -30 -7z m-43
-224 c48 -38 22 -86 -53 -96 -97 -13 -157 63 -83 106 31 18 107 13 136 -10z"/>
<path d="M411 766 c-26 -31 -168 -341 -159 -347 5 -3 9 -10 8 -15 -2 -4 5 -13
14 -19 13 -8 24 -2 55 33 l39 42 78 0 c88 0 90 -1 123 -48 28 -40 60 -40 73 0
8 22 -4 52 -77 197 -80 162 -87 171 -114 171 -16 0 -34 -6 -40 -14z m64 -167
c9 -17 14 -33 12 -36 -3 -2 -23 -3 -46 -1 l-41 3 20 33 c25 40 35 40 55 1z"/>
<path d="M1315 676 c-17 -7 -43 -28 -58 -45 -23 -28 -27 -42 -27 -94 0 -111
57 -162 180 -161 115 1 169 49 172 151 2 74 -21 116 -77 143 -48 23 -144 26
-190 6z m165 -105 c38 -27 37 -57 -2 -81 -42 -26 -104 -26 -145 0 -37 22 -42
49 -14 74 42 38 113 41 161 7z"/>
<path d="M2773 671 c-58 -27 -78 -61 -78 -137 0 -48 5 -69 21 -91 64 -86 208
-95 292 -19 33 31 36 39 40 97 3 55 0 69 -20 98 -12 19 -39 42 -58 52 -46 25
-141 25 -197 0z m174 -98 c46 -31 36 -74 -23 -93 -67 -22 -154 5 -154 49 0 27
15 42 56 56 42 15 86 11 121 -12z"/>
<path d="M3242 670 c-48 -29 -72 -75 -72 -138 0 -56 18 -102 48 -124 14 -10
19 -26 19 -62 0 -56 13 -71 74 -81 96 -16 181 31 199 110 11 46 13 237 4 284
-5 24 -12 31 -30 31 -15 0 -24 -6 -24 -15 0 -18 -8 -18 -40 0 -38 22 -138 19
-178 -5z m141 -81 c41 -11 71 -47 61 -73 -15 -39 -91 -57 -153 -35 -73 26 -59
84 29 112 22 8 22 8 63 -4z m23 -214 c-11 -8 -36 -14 -55 -14 -35 1 -34 2 14
14 64 17 63 17 41 0z"/>
<path d="M1863 625 c-34 -14 -53 -41 -53 -74 0 -17 3 -16 29 10 25 25 37 29
81 29 44 0 56 -4 81 -29 26 -26 29 -27 29 -10 0 33 -20 60 -55 75 -42 17 -71
17 -112 -1z"/>
<path d="M2330 633 c-32 -12 -60 -47 -60 -74 l0 -27 29 29 c25 24 37 29 81 29
41 0 56 -5 77 -26 14 -14 27 -23 30 -20 12 11 -9 57 -32 72 -27 17 -100 28
-125 17z"/>
<path d="M2068 490 c-37 -65 -140 -90 -223 -56 l-35 15 0 -41 c0 -34 2 -39 14
-29 11 9 25 9 57 1 79 -21 163 12 194 76 21 46 16 74 -7 34z"/>
<path d="M2210 482 c0 -12 14 -37 31 -57 42 -47 94 -61 170 -45 32 7 70 9 84
6 26 -7 55 7 55 25 0 5 -13 9 -30 9 -23 0 -30 4 -30 20 0 20 0 20 -32 0 -23
-14 -51 -20 -91 -20 -65 0 -105 17 -136 56 -20 25 -21 25 -21 6z"/>
<path d="M1750 301 c0 -5 7 -14 15 -21 12 -10 18 -10 30 0 23 19 18 30 -15 30
-16 0 -30 -4 -30 -9z"/>
</g>
</svg>
